<svg width="32" height="32" viewBox="0 0 32 32" fill="none" xmlns="http://www.w3.org/2000/svg">
<path d="M16.0648 3.6686C20.1024 3.6686 20.5812 3.68373 22.1766 3.75681C26.2747 3.94332 28.1888 5.88775 28.3754 9.95555C28.4484 11.5497 28.4623 12.0285 28.4623 16.0661C28.4623 20.1049 28.4472 20.5825 28.3754 22.1766C28.1876 26.2406 26.2784 28.1888 22.1766 28.3754C20.5812 28.4484 20.1049 28.4636 16.0648 28.4636C12.0273 28.4636 11.5484 28.4484 9.95429 28.3754C5.84616 28.1876 3.94206 26.2343 3.75555 22.1754C3.68246 20.5812 3.66734 20.1036 3.66734 16.0648C3.66734 12.0273 3.68373 11.5497 3.75555 9.95429C3.94332 5.88775 5.85246 3.94206 9.95429 3.75555C11.5497 3.68373 12.0273 3.6686 16.0648 3.6686ZM16.0648 0.942871C11.958 0.942871 11.4438 0.960513 9.8308 1.0336C4.33901 1.28564 1.2869 4.33271 1.03486 9.82954C0.960513 11.4438 0.942871 11.958 0.942871 16.0648C0.942871 20.1717 0.960513 20.6871 1.0336 22.3001C1.28564 27.7919 4.33271 30.844 9.82954 31.096C11.4438 31.1691 11.958 31.1868 16.0648 31.1868C20.1717 31.1868 20.6871 31.1691 22.3001 31.096C27.7869 30.844 30.8465 27.7969 31.0948 22.3001C31.1691 20.6871 31.1868 20.1717 31.1868 16.0648C31.1868 11.958 31.1691 11.4438 31.096 9.8308C30.8491 4.34405 27.7982 1.2869 22.3014 1.03486C20.6871 0.960513 20.1717 0.942871 16.0648 0.942871ZM16.0648 8.2997C11.7765 8.2997 8.2997 11.7765 8.2997 16.0648C8.2997 20.3532 11.7765 23.8312 16.0648 23.8312C20.3532 23.8312 23.8299 20.3544 23.8299 16.0648C23.8299 11.7765 20.3532 8.2997 16.0648 8.2997ZM16.0648 21.1055C13.2811 21.1055 11.0242 18.8498 11.0242 16.0648C11.0242 13.2811 13.2811 11.0242 16.0648 11.0242C18.8485 11.0242 21.1055 13.2811 21.1055 16.0648C21.1055 18.8498 18.8485 21.1055 16.0648 21.1055ZM24.1374 6.17885C23.1343 6.17885 22.3215 6.99165 22.3215 7.99348C22.3215 8.99531 23.1343 9.80812 24.1374 9.80812C25.1393 9.80812 25.9508 8.99531 25.9508 7.99348C25.9508 6.99165 25.1393 6.17885 24.1374 6.17885Z" fill="white"/>
</svg>
