<svg width="68" height="68" viewBox="0 0 68 68" fill="none" xmlns="http://www.w3.org/2000/svg">
<path d="M36.5498 42.8598L19.4365 59.9731C17.9234 61.4858 15.8715 62.3354 13.732 62.3352C11.5925 62.3349 9.54073 61.4847 8.02807 59.9717C6.51541 58.4586 5.66575 56.4067 5.66602 54.2672C5.66628 52.1277 6.51645 50.0759 8.02948 48.5633L25.14 31.4528M58.2192 9.77777C61.6447 13.2033 54.1108 23.0151 49.0958 28.0301C44.0808 33.0451 31.9825 42.8598 28.5627 39.4371M58.2192 9.77777C54.7965 6.35227 44.9875 13.8889 39.9697 18.9039C34.9518 23.9189 25.1372 36.0144 28.5627 39.4371M58.2192 9.77777C64.5205 16.0763 63.39 27.4238 56.1452 34.6686C48.9003 41.9134 34.8612 45.7356 28.5627 39.4371M58.2192 9.77777C51.9207 3.47644 40.576 4.60977 33.3312 11.8546C26.0863 19.0994 22.2613 33.1386 28.5627 39.4371" stroke="#F3CFFC" stroke-width="1.5"/>
</svg>
